<svg id="Layer_1" data-name="Layer 1" xmlns="http://www.w3.org/2000/svg" viewBox="0 0 2000 2000"><defs><style>.cls-1{fill:#ce1126;}.cls-2{fill:#fff;}.cls-3{fill:#007a3d;}</style></defs><title>IRAQ</title><path class="cls-1" d="M0,0H2000V2000H0Z"/><path class="cls-2" d="M0,666.67H2000V2000H0Z"/><path d="M0,1333.33H2000V2000H0Z"/><path class="cls-3" d="M1292.49,875.24c-4.08-2.15-8.66-5.6-10.19-7.69-2.29-3.2-1-3.33,8.49-.76,16.92,4.6,27.84,2.8,38.67-6.37l9.55-8,11.24,5.72c6.19,3.13,12.76,5.29,14.66,4.79,4.87-1.29,15-14.23,14.63-18.72-.39-5.54,4.29-4.14,6.54,1.93,4.49,11.9-2,25.56-13.61,28.6-5.64,1.46-10.86.93-19.41-2-10.5-3.67-12.3-3.61-17.56.42-11.81,9-28.25,9.89-43,2.19ZM1334.34,837c-4.11-5.23-9-25-7.45-29.84,1.41-4.2,2.92-5.11,6.68-3.84,6.7,2.09,8.24,6.71,7.24,22.36-.78,12.75-2.67,16.1-6.46,11.31ZM841.52,822.85c-1.35,9.49,17,33.34,25.24,37.65-5.62,2.52-12.61,1.37-17.76,4.2-28.82,28.82-134.07,131.43-153.29,156,56.94,1.12,120.06-.77,173.43-3.21,0-38.69,36.63-40.67,61.17-54.76,12.63,19.89,44.34,18.36,48.31,48.3l.07,128.8H492.3c-8.56,37.78-42.66,66.61-90.18,54.75,14.7-15.36,39.45-20.64,48.32-41.86,7.48-46.46-14.93-75.15-29.41-101.5,24-8.72,27.6-10.91,52-27.28-17.11,52,44.52,46.26,90.17,45.07,1.45-17.64.73-38.46-12.9-41,17.49-6.35,20.4-8.52,48.33-32.2v70l336.78-.73c0-21.91,5.81-57.11-11.53-57.11-16.57,0-.78,45.06-13.65,45.06H650.13l-.17-44.71c10.95-11,9.71-10.07,85-85.38,7.51-7.52,60.34-55.24,106.57-100.09Zm650.08-1.93c18.15,9.78,32.53,23.36,54.75,29-2.58,9.19-10.77,12.84-12.91,22.53V1068.8c24.83,5.47,30-8.6,41.87-16.1,3.23,31.44,23.26,62.27,22.54,86.87H1491.57V820.78Zm-141.7,105.2,38.66-33.89v171.42l27.84-.05-.86-192.25c11.3-11.31,33.43-27.73,39-39.11v307l-244.11.09c-3.6-63.72-4.21-129.71,70.07-115.52v-26c-2.19-4.38-6.33,1.08-7.28-4.7,11.79-11.81,15.79-14.82,47.72-42.72l.59,113.14,28.15,0s.26-133,.26-137.45Zm-91.62,135.78c5.23,7.85,23,7.71,22.19-5.51C1277.55,1045.49,1254.08,1049.65,1258.28,1061.9Z"/><circle class="cls-3" cx="551.62" cy="1175.91" r="14.91"/><path class="cls-3" d="M1011.64,821.24c18.16,9.79,32.53,23.29,54.76,29-2.58,9.2-10.78,12.85-12.91,22.54v196.42c24.82,5.47,30-8.61,41.87-16.1,3.21,31.44,23.25,62.24,22.54,86.86H1011.62l0-318.78Z"/></svg>
