<svg id="Layer_1" data-name="Layer 1" xmlns="http://www.w3.org/2000/svg" viewBox="0 0 2000 2000"><defs><style>.cls-1{fill:#278e43;}.cls-2{fill:#ed2024;}.cls-3{fill:#fff;}.cls-4{fill:#febd11;}</style></defs><title>Artboard 1</title><rect class="cls-1" y="1000" width="2000" height="1000"/><rect class="cls-2" width="2000" height="1000"/><rect class="cls-3" y="667" width="2000" height="666"/><g id="d"><g id="c"><g id="b"><path id="a" class="cls-4" d="M926.5,1016l73.6-516,73.6,516"/><path class="cls-4" d="M925.05,993.62l222.42-471.38L1065.71,1037"/></g><path class="cls-4" d="M930.26,971.82l351.48-384.88-229.86,467.8"/><path class="cls-4" d="M941.66,952.51,1391,688.34,1033.44,1067.6"/></g><path class="cls-4" d="M958.25,937.43l507.22-120-453.44,257"/><path class="cls-4" d="M978.55,927.9l520.06,34.82-509.06,112"/><path class="cls-4" d="M1000.75,924.78l486.69,186.57L968,1068.29"/><path class="cls-4" d="M1022.89,928.35,1433,1250.08,949.29,1055.83"/></g><path class="cls-4" d="M1022.89,928.35,1433,1250.09,949.29,1055.83"/><path class="cls-4" d="M1043,938.28l297,428.31L935.09,1038.4"/><path class="cls-4" d="M1059.28,953.69l157.57,496.84-290.19-433"/><path class="cls-4" d="M1070.29,973.22l4.13,521.21L924.74,995.16"/><path class="cls-4" d="M1075.06,995.13,925.39,1494.4l4.12-521.2"/><path class="cls-4" d="M1073.16,1017.47,783,1450.45,940.54,953.61"/><path class="cls-4" d="M1064.76,1038.26l-404.91,328.2,297-428.32"/><path class="cls-4" d="M1050.61,1055.65,566.94,1249.92,977,928.17"/><path class="cls-4" d="M1050.61,1055.65,566.94,1249.91,977,928.17"/><path class="cls-4" d="M1032,1068.1l-519.44,43.06L999.2,924.59"/><path class="cls-4" d="M1010.46,1074.49l-509-112,520.05-34.83"/><path class="cls-4" d="M988,1074.26l-453.44-257,507.22,120"/><path class="cls-4" d="M966.68,1067.44,609.14,688.19l449.32,264.16"/><path class="cls-4" d="M948.29,1054.63,718.41,586.83l351.5,384.87"/><path class="cls-4" d="M934.48,1037,852.71,522.19l222.43,471.37"/><path class="cls-4" d="M926.5,1016l73.59-516,73.61,516"/></svg>
